<?xml version="1.0" encoding="UTF-8" ?>
<!DOCTYPE svg PUBLIC "-//W3C//DTD SVG 1.1//EN" "http://www.w3.org/Graphics/SVG/1.1/DTD/svg11.dtd">
<svg width="339pt" height="452pt" viewBox="0 0 339 452" version="1.1" xmlns="http://www.w3.org/2000/svg">
<path fill="#ffffff" d=" M 0.00 0.00 L 339.00 0.00 L 339.00 452.00 L 216.25 452.00 L 214.36 451.58 C 216.17 449.73 218.60 448.24 219.71 445.84 C 219.49 438.47 214.14 432.47 208.73 427.99 C 208.72 415.61 208.14 403.25 207.17 390.91 C 211.31 389.82 215.72 388.93 219.14 386.16 C 220.69 384.84 223.01 383.43 222.27 381.04 C 221.43 375.80 220.30 370.61 219.50 365.36 C 217.52 354.26 216.81 342.95 214.12 331.97 C 236.80 326.61 258.30 316.09 276.29 301.28 C 284.97 294.69 291.98 286.25 299.27 278.24 C 305.57 269.99 310.59 260.83 316.05 252.03 C 321.71 248.38 328.35 246.30 334.25 242.99 C 337.09 241.49 338.55 237.95 338.27 234.85 C 336.12 217.97 335.96 200.93 334.06 184.02 C 332.13 170.64 330.53 157.19 327.43 144.02 C 325.80 136.94 324.60 129.71 321.93 122.91 C 315.40 105.91 305.93 90.11 294.48 75.97 C 298.36 75.94 302.23 75.53 305.94 74.35 C 306.52 69.24 300.89 67.83 297.67 65.27 C 287.31 57.86 276.69 50.82 265.79 44.21 C 264.56 41.31 262.43 38.89 259.74 37.26 C 256.05 34.99 252.81 32.00 248.87 30.16 C 231.45 23.07 212.44 22.02 194.51 16.77 C 185.79 14.15 176.57 14.98 167.60 14.45 C 166.84 14.67 165.32 15.09 164.56 15.30 C 164.86 14.30 165.16 13.29 165.45 12.28 L 165.40 13.33 C 168.54 11.09 171.79 8.98 175.16 7.10 C 178.33 5.28 182.18 4.67 184.72 1.83 C 173.34 0.31 160.78 2.42 151.92 10.17 C 148.61 8.12 144.90 6.75 141.00 6.49 C 132.66 6.01 124.25 6.18 116.03 7.73 C 109.56 8.41 103.03 10.88 98.93 16.15 C 103.55 17.49 108.38 17.32 113.13 17.69 C 116.90 18.04 119.43 21.23 122.08 23.59 C 115.70 25.66 109.12 27.26 103.15 30.40 C 96.88 33.83 90.11 36.22 84.02 39.98 C 76.94 44.38 70.50 49.74 64.46 55.46 C 60.45 59.23 55.48 61.74 51.19 65.15 C 41.64 72.63 34.11 82.28 26.72 91.80 C 19.59 101.89 14.30 113.13 9.83 124.61 C 6.92 132.51 5.45 140.82 3.53 148.99 C 1.79 157.62 0.09 166.46 1.32 175.29 C 5.09 177.04 4.76 181.41 5.38 184.90 C 8.91 216.36 21.88 246.62 41.86 271.14 C 68.57 304.25 107.69 327.08 149.68 333.96 C 145.11 346.65 142.36 359.91 137.82 372.62 C 136.22 376.27 136.39 380.32 138.18 383.87 C 139.59 388.38 145.00 388.75 148.65 390.56 C 147.20 402.64 148.10 414.78 148.24 426.90 C 146.24 428.94 143.42 430.87 143.46 434.06 C 143.18 438.05 143.14 442.08 143.46 446.07 C 143.46 447.79 145.10 448.98 146.54 449.61 C 151.77 451.52 157.49 450.55 162.83 452.00 L 0.00 452.00 L 0.00 0.00 Z" />
<path fill="#222222" d=" M 151.92 10.17 C 160.78 2.42 173.34 0.31 184.72 1.83 C 182.18 4.67 178.33 5.28 175.16 7.10 C 171.79 8.98 168.54 11.09 165.40 13.33 L 165.45 12.28 C 165.16 13.29 164.86 14.30 164.56 15.30 C 165.32 15.09 166.84 14.67 167.60 14.45 C 176.57 14.98 185.79 14.15 194.51 16.77 C 212.44 22.02 231.45 23.07 248.87 30.16 C 252.81 32.00 256.05 34.99 259.74 37.26 C 262.43 38.89 264.56 41.31 265.79 44.21 C 276.69 50.82 287.31 57.86 297.67 65.27 C 300.89 67.83 306.52 69.24 305.94 74.35 C 302.23 75.53 298.36 75.94 294.48 75.97 C 305.93 90.11 315.40 105.91 321.93 122.91 C 324.60 129.71 325.80 136.94 327.43 144.02 C 330.53 157.19 332.13 170.64 334.06 184.02 C 335.96 200.93 336.12 217.97 338.27 234.85 C 338.55 237.95 337.09 241.49 334.25 242.99 C 328.35 246.30 321.71 248.38 316.05 252.03 C 310.59 260.83 305.57 269.99 299.27 278.24 C 291.98 286.25 284.97 294.69 276.29 301.28 C 258.30 316.09 236.80 326.61 214.12 331.97 C 216.81 342.95 217.52 354.26 219.50 365.36 C 220.30 370.61 221.43 375.80 222.27 381.04 C 223.01 383.43 220.69 384.84 219.14 386.16 C 215.72 388.93 211.31 389.82 207.17 390.91 C 208.14 403.25 208.72 415.61 208.73 427.99 C 214.14 432.47 219.49 438.47 219.71 445.84 C 218.60 448.24 216.17 449.73 214.36 451.58 C 210.00 450.46 205.48 450.74 201.05 451.10 C 194.37 451.58 187.71 450.69 181.03 450.77 C 169.53 450.76 157.99 450.69 146.54 449.61 C 145.10 448.98 143.46 447.79 143.46 446.07 C 143.14 442.08 143.18 438.05 143.46 434.06 C 143.42 430.87 146.24 428.94 148.24 426.90 C 148.10 414.78 147.20 402.64 148.65 390.56 C 145.00 388.75 139.59 388.38 138.18 383.87 C 136.39 380.32 136.22 376.27 137.82 372.62 C 142.36 359.91 145.11 346.65 149.68 333.96 C 107.69 327.08 68.57 304.25 41.86 271.14 C 21.88 246.62 8.91 216.36 5.38 184.90 C 4.76 181.41 5.09 177.04 1.32 175.29 C 0.09 166.46 1.79 157.62 3.53 148.99 C 5.45 140.82 6.92 132.51 9.83 124.61 C 14.30 113.13 19.59 101.89 26.72 91.80 C 34.11 82.28 41.64 72.63 51.19 65.15 C 55.48 61.74 60.45 59.23 64.46 55.46 C 70.50 49.74 76.94 44.38 84.02 39.98 C 90.11 36.22 96.88 33.83 103.15 30.40 C 109.12 27.26 115.70 25.66 122.08 23.59 C 119.43 21.23 116.90 18.04 113.13 17.69 C 108.38 17.32 103.55 17.49 98.93 16.15 C 103.03 10.88 109.56 8.41 116.03 7.73 C 124.25 6.18 132.66 6.01 141.00 6.49 C 144.90 6.75 148.61 8.12 151.92 10.17 Z" />
<path fill="#f4c900" d=" M 151.08 14.40 C 156.49 9.85 163.19 7.05 170.16 6.04 C 167.34 7.50 164.64 9.21 162.47 11.56 C 162.49 12.59 162.50 13.62 162.51 14.65 C 163.02 14.80 164.05 15.10 164.56 15.25 L 164.21 16.31 C 173.63 18.01 183.14 18.98 192.65 20.03 C 190.20 20.76 187.80 21.73 185.75 23.29 C 190.45 23.78 195.18 23.01 199.88 23.54 C 215.10 25.21 230.37 27.77 244.72 33.30 C 247.64 34.43 250.30 36.09 252.86 37.86 C 244.61 36.80 236.71 32.60 228.24 33.92 C 228.32 34.46 228.47 35.55 228.55 36.10 C 238.32 37.94 247.85 41.11 256.99 45.00 C 271.23 52.28 284.18 61.78 297.19 71.02 C 288.45 71.86 279.76 73.16 271.26 75.36 C 260.65 77.39 250.33 80.88 240.64 85.66 C 236.96 87.35 233.97 90.72 229.70 90.89 C 229.50 86.11 229.73 81.05 227.22 76.76 C 221.37 81.36 215.57 86.18 210.95 92.05 C 206.87 87.32 202.75 82.61 198.20 78.33 C 193.20 80.23 188.62 83.13 184.54 86.56 C 181.06 89.73 177.86 93.29 173.82 95.76 C 172.60 95.88 171.80 94.73 170.88 94.15 C 166.55 90.43 162.22 86.68 157.56 83.38 C 156.24 82.26 154.47 82.38 152.86 82.24 C 151.05 89.52 146.82 95.82 143.98 102.70 C 139.93 98.72 135.32 95.41 130.62 92.26 C 127.77 90.40 125.44 87.38 122.00 86.68 C 117.72 87.35 114.67 90.79 111.18 93.07 C 106.39 96.20 101.53 99.23 96.89 102.60 C 98.40 109.67 102.66 115.68 105.63 122.17 C 108.27 127.32 110.24 132.78 113.29 137.72 C 116.21 142.45 117.63 147.94 120.72 152.56 C 118.60 154.27 116.36 155.81 114.13 157.36 C 110.55 153.76 106.49 150.67 103.13 146.84 C 101.36 144.97 99.96 142.73 97.92 141.13 C 94.35 142.62 91.36 145.14 87.98 146.98 C 82.92 149.82 77.74 152.55 73.45 156.51 C 73.65 158.45 73.94 160.39 74.10 162.33 C 73.80 162.94 73.18 164.15 72.87 164.76 C 71.89 162.04 70.98 159.29 70.01 156.57 C 68.25 160.69 69.30 165.08 70.65 169.14 C 71.73 169.58 72.81 170.03 73.89 170.48 C 68.91 174.89 64.56 179.96 59.52 184.31 C 56.81 181.98 53.72 180.19 50.61 178.48 C 46.89 176.44 43.99 173.30 40.94 170.42 C 33.87 173.41 27.04 176.96 19.80 179.58 C 14.38 177.12 9.30 173.93 3.64 172.03 C 4.22 159.49 7.39 147.24 9.42 134.88 C 10.00 131.26 11.09 127.75 12.49 124.36 C 16.61 114.90 20.79 105.36 26.84 96.93 C 32.04 89.85 37.59 83.02 43.44 76.46 C 47.59 71.84 52.62 68.17 57.28 64.09 C 52.31 69.18 47.90 74.79 43.77 80.57 C 41.54 84.73 38.70 88.79 38.05 93.58 C 38.53 93.52 39.50 93.40 39.98 93.34 C 40.75 92.38 41.52 91.44 42.31 90.50 C 47.30 88.34 50.20 83.60 53.65 79.68 C 63.77 68.14 74.83 57.41 86.81 47.80 C 90.57 44.50 96.85 42.98 97.25 37.10 C 102.81 34.68 108.31 32.07 114.11 30.27 C 118.02 28.98 122.16 28.33 125.87 26.49 C 125.41 20.38 120.60 15.64 115.05 13.70 C 111.62 13.18 108.15 13.59 104.70 13.54 C 117.32 11.43 130.17 9.61 142.97 11.15 C 145.88 11.66 148.36 13.36 151.08 14.40 Z" />
<path fill="#f8db51" d=" M 123.44 13.59 C 130.80 12.95 138.39 12.92 145.44 15.40 C 144.37 16.24 143.49 17.72 141.96 17.64 C 137.23 17.65 132.61 16.42 127.97 15.69 C 126.26 15.50 124.78 14.62 123.44 13.59 Z" />
<path fill="#f8db51" d=" M 198.13 26.78 C 208.23 26.94 218.58 27.41 228.27 30.55 C 223.13 29.78 218.14 32.34 213.04 31.22 C 208.00 30.08 202.25 30.35 198.13 26.78 Z" />
<path fill="#f8db51" d=" M 73.59 52.60 C 80.89 46.64 88.28 40.38 97.25 37.10 C 96.85 42.98 90.57 44.50 86.81 47.80 C 74.83 57.41 63.77 68.14 53.65 79.68 C 50.20 83.60 47.30 88.34 42.31 90.50 C 45.91 82.49 51.96 76.07 57.57 69.45 C 63.18 64.08 67.51 57.50 73.59 52.60 Z" />
<path fill="#f8db51" d=" M 225.01 38.28 C 234.10 39.28 242.63 42.72 251.17 45.78 C 256.74 47.65 262.07 50.13 267.30 52.79 C 274.34 56.31 279.01 62.92 285.45 67.29 C 283.84 67.91 282.17 69.26 280.35 68.59 C 278.51 67.92 276.89 66.81 275.23 65.81 C 261.90 57.71 247.89 50.69 233.07 45.77 C 229.39 44.67 225.91 42.24 225.01 38.28 Z" />
<path fill="#f8db51" d=" M 140.92 75.73 C 141.49 74.04 143.60 74.38 144.95 73.84 C 145.92 78.30 145.10 83.05 142.97 87.05 C 141.49 89.36 138.41 88.52 137.79 86.00 C 138.24 82.44 139.36 78.96 140.92 75.73 Z" />
<path fill="#f8db51" d=" M 189.35 74.50 C 191.09 73.88 193.14 74.26 193.86 76.13 C 193.51 78.12 191.29 78.80 189.89 79.95 C 185.56 82.48 181.97 86.12 177.57 88.51 C 174.82 89.36 173.46 84.96 175.55 83.49 C 179.54 79.72 184.28 76.59 189.35 74.50 Z" />
<path fill="#f8db51" d=" M 217.73 74.73 C 219.20 73.49 220.84 75.04 222.19 75.63 C 219.34 79.00 216.74 82.61 213.58 85.70 C 212.46 86.85 210.69 86.55 209.26 86.87 C 209.49 85.04 208.81 82.76 210.32 81.35 C 212.56 78.91 214.98 76.59 217.73 74.73 Z" />
<path fill="#f6e1b7" d=" M 243.91 88.80 C 255.39 83.60 267.68 80.49 280.03 78.20 C 282.84 78.45 286.45 78.12 288.20 80.81 C 305.63 102.12 317.68 127.85 322.63 154.94 C 325.45 173.26 327.51 191.68 329.53 210.10 C 329.91 218.38 330.82 226.65 330.71 234.96 C 330.72 237.05 328.77 238.43 327.01 239.10 C 322.24 241.35 316.84 241.62 311.97 243.59 C 308.78 253.02 302.82 261.14 297.58 269.50 C 293.12 274.89 289.18 280.73 284.34 285.80 C 277.55 280.29 272.10 272.73 270.69 263.95 C 270.28 259.96 270.45 255.86 269.06 252.03 C 265.44 254.38 265.59 259.16 265.53 262.98 C 266.20 273.40 271.44 283.56 279.82 289.89 C 273.03 295.49 266.69 301.75 259.01 306.16 C 254.86 308.54 250.94 311.29 246.78 313.64 C 227.97 322.74 207.41 328.35 186.49 329.23 C 186.28 325.57 186.53 321.79 188.58 318.62 C 197.46 303.45 201.62 286.18 205.28 269.16 C 207.49 258.04 209.35 246.85 210.51 235.57 C 212.94 206.76 209.65 177.87 205.52 149.37 C 203.04 134.68 198.00 120.57 192.01 106.98 C 189.64 101.30 184.89 96.34 185.32 89.81 C 188.63 87.44 192.04 85.19 195.66 83.31 C 198.44 86.58 202.43 88.49 205.19 91.77 C 207.31 93.90 208.95 96.80 211.89 97.92 C 213.76 96.71 214.78 94.65 215.99 92.85 C 218.42 88.91 221.88 85.77 225.31 82.72 C 225.55 86.98 225.16 91.34 226.55 95.45 C 227.14 95.52 228.32 95.65 228.91 95.72 C 233.53 92.66 238.93 91.15 243.91 88.80 Z" />
<path fill="#f8db51" d=" M 142.49 94.14 C 143.63 89.27 146.35 84.61 150.33 81.51 C 148.84 86.97 146.08 91.96 144.23 97.30 C 143.22 96.52 142.05 95.60 142.49 94.14 Z" />
<path fill="#ebd19e" d=" M 145.32 106.70 C 149.07 100.63 151.76 93.96 154.51 87.40 C 161.96 90.35 167.95 95.76 174.87 99.64 C 178.62 96.65 181.79 93.04 185.32 89.81 C 184.89 96.34 189.64 101.30 192.01 106.98 C 198.00 120.57 203.04 134.68 205.52 149.37 C 209.65 177.87 212.94 206.76 210.51 235.57 C 209.35 246.85 207.49 258.04 205.28 269.16 C 201.62 286.18 197.46 303.45 188.58 318.62 C 186.53 321.79 186.28 325.57 186.49 329.23 C 162.85 330.58 139.05 325.86 117.30 316.66 C 85.06 302.89 57.44 278.56 39.82 248.25 C 30.71 232.68 24.32 215.52 20.82 197.83 C 20.06 193.34 18.92 188.81 19.34 184.22 C 22.39 182.44 25.92 181.68 28.99 179.90 C 32.85 177.74 36.82 175.64 41.16 174.65 C 46.56 177.91 51.38 182.04 56.59 185.59 C 57.79 186.53 59.35 186.65 60.78 187.01 C 66.25 183.52 70.69 178.73 75.81 174.79 C 77.73 173.04 79.90 170.89 79.67 168.07 C 79.81 164.62 78.46 161.37 78.10 157.98 C 83.44 153.45 90.21 150.80 96.21 147.20 C 103.45 150.18 108.89 156.18 114.06 161.87 C 117.19 158.92 120.46 156.12 123.86 153.49 C 118.82 143.42 113.73 133.37 108.36 123.48 C 105.60 116.90 103.09 110.22 100.27 103.67 C 105.94 98.19 113.48 95.40 120.06 91.24 C 125.28 93.19 130.11 96.11 134.68 99.28 C 138.31 101.66 141.01 105.44 145.32 106.70 Z" />
<path fill="#222222" d=" M 245.50 118.49 C 255.76 110.42 269.02 106.16 282.07 107.25 C 283.84 107.05 285.37 109.69 283.80 110.93 C 283.04 112.19 281.22 111.57 280.02 111.85 C 268.29 111.69 256.80 115.64 246.97 121.89 C 244.80 123.40 242.62 124.91 240.20 125.99 C 239.94 122.43 243.12 120.48 245.50 118.49 Z" />
<path fill="#f8db51" d=" M 92.64 116.30 C 91.59 114.67 91.40 112.73 91.61 110.84 C 96.61 115.83 99.13 122.55 103.09 128.28 C 101.80 123.40 99.03 119.10 97.67 114.25 C 106.20 123.17 109.65 135.26 115.84 145.65 C 114.42 145.41 112.51 145.95 111.67 144.41 C 109.30 141.14 108.15 137.18 106.13 133.70 C 107.12 138.71 110.52 142.95 110.66 148.18 C 107.00 145.58 105.44 141.26 103.60 137.38 C 100.33 130.16 96.51 123.21 92.64 116.30 Z" />
<path fill="#222222" d=" M 270.62 133.83 C 275.66 132.25 281.11 133.69 285.26 136.78 C 290.45 140.66 295.09 146.27 295.32 153.04 C 296.06 160.21 292.45 167.52 286.19 171.13 C 281.52 174.48 275.52 174.68 270.01 174.20 C 263.54 173.63 257.26 168.65 256.47 161.99 C 255.94 156.20 256.62 150.21 258.89 144.82 C 261.19 139.93 265.10 135.08 270.62 133.83 Z" />
<path fill="#ffffff" d=" M 265.13 140.20 C 267.93 137.97 271.45 135.95 275.16 136.94 C 281.93 137.98 288.93 141.81 291.21 148.65 C 291.84 151.77 291.43 154.99 291.33 158.15 C 288.55 168.33 276.07 174.64 266.36 170.35 C 261.83 167.16 258.30 161.74 258.78 156.00 C 259.00 150.24 260.12 143.79 265.13 140.20 Z" />
<path fill="#222222" d=" M 278.93 146.20 C 280.56 146.98 282.93 147.39 283.59 149.33 C 284.06 152.32 283.90 155.45 283.13 158.38 C 282.24 160.77 279.85 163.27 277.07 162.62 C 274.69 161.37 274.65 158.30 274.74 155.97 C 275.10 154.57 275.42 153.16 275.70 151.74 C 276.59 149.79 277.69 147.95 278.93 146.20 Z" />
<path fill="#222222" d=" M 88.07 158.98 C 91.25 154.58 99.84 154.85 101.29 160.57 C 97.65 160.63 93.16 160.06 90.79 163.52 C 87.00 169.63 88.43 177.41 90.58 183.85 C 92.10 187.51 94.53 191.99 98.97 192.32 C 101.82 192.88 103.93 190.12 106.70 190.30 C 107.03 191.75 106.94 193.50 105.57 194.41 C 101.78 198.30 94.99 197.24 91.44 193.56 C 87.52 189.64 84.35 184.66 83.49 179.12 C 83.03 172.22 83.91 164.72 88.07 158.98 Z" />
<path fill="#f8db51" d=" M 70.65 169.14 C 69.30 165.08 68.25 160.69 70.01 156.57 C 70.98 159.29 71.89 162.04 72.87 164.76 C 73.18 164.15 73.80 162.94 74.10 162.33 C 75.12 165.00 76.85 168.38 73.89 170.48 C 72.81 170.03 71.73 169.58 70.65 169.14 Z" />
<path fill="#6b78aa" d=" M 155.79 334.85 C 173.32 337.15 191.13 336.36 208.49 333.13 C 209.63 345.14 210.75 357.15 212.22 369.12 C 212.61 372.94 213.69 376.71 213.61 380.57 C 207.15 383.65 199.91 384.44 192.93 385.61 C 184.37 387.05 175.65 386.60 167.02 386.35 C 158.90 386.01 151.01 383.97 143.11 382.30 C 148.65 366.85 151.21 350.57 155.79 334.85 Z" />
<path fill="#222222" d=" M 171.96 345.82 C 174.41 344.65 175.61 348.13 175.30 349.98 C 174.78 354.82 173.75 359.60 173.29 364.45 C 177.50 364.13 181.77 364.12 185.83 365.41 C 185.48 360.25 184.77 355.12 184.47 349.97 C 184.26 348.53 184.92 347.22 185.92 346.24 C 188.96 347.92 187.99 352.03 188.70 354.91 C 188.81 359.65 191.33 364.62 189.17 369.17 C 187.44 373.53 188.79 378.43 187.30 382.87 C 185.63 385.16 182.47 384.48 180.03 384.63 C 176.45 384.40 171.98 384.61 169.52 381.53 C 168.20 377.48 169.70 373.24 171.36 369.52 C 172.65 367.10 168.73 366.15 168.32 363.97 C 168.05 359.90 169.41 355.98 170.03 352.00 C 170.50 349.91 170.52 347.55 171.96 345.82 Z" />
<path fill="#ebd19e" d=" M 172.51 378.58 C 173.03 375.05 173.17 370.62 176.81 368.78 C 179.15 368.98 181.44 369.50 183.77 369.85 C 183.78 373.13 183.52 376.40 183.31 379.67 C 179.67 379.94 175.92 380.08 172.51 378.58 Z" />
<path fill="#a2a06d" d=" M 153.61 392.17 C 162.35 393.40 171.18 394.77 180.04 394.09 C 182.86 393.86 185.68 393.74 188.51 393.78 C 185.91 394.26 183.23 394.70 180.86 395.91 C 178.49 403.43 178.28 412.44 182.71 419.29 C 173.32 419.38 163.68 419.00 154.79 422.58 C 154.34 412.45 155.07 402.23 153.61 392.17 Z" />
<path fill="#bdbd80" d=" M 188.51 393.78 C 192.89 393.31 197.24 392.63 201.61 392.10 C 201.46 402.26 201.06 412.42 200.71 422.59 C 194.86 420.81 188.85 419.34 182.71 419.29 C 178.28 412.44 178.49 403.43 180.86 395.91 C 183.23 394.70 185.91 394.26 188.51 393.78 Z" />
<path fill="#a2a06d" d=" M 150.63 430.86 C 157.80 429.74 164.91 428.22 172.18 427.89 C 178.45 436.04 188.72 439.48 198.43 441.41 C 202.85 442.47 207.45 443.01 211.94 441.98 L 212.24 441.93 C 212.40 442.56 212.72 443.81 212.88 444.43 C 197.93 444.40 182.97 444.35 168.01 444.53 C 161.75 444.86 155.49 445.34 149.22 445.44 C 149.33 440.56 148.63 435.47 150.63 430.86 Z" />
<path fill="#bdbd80" d=" M 172.18 427.89 C 182.76 427.43 193.46 428.50 203.69 431.26 C 208.53 432.55 209.92 438.05 211.94 441.98 C 207.45 443.01 202.85 442.47 198.43 441.41 C 188.72 439.48 178.45 436.04 172.18 427.89 Z" />
<path fill="#f6e1b7" d=" M 146.54 449.61 C 157.99 450.69 169.53 450.76 181.03 450.77 C 187.71 450.69 194.37 451.58 201.05 451.10 C 205.48 450.74 210.00 450.46 214.36 451.58 L 216.25 452.00 L 162.83 452.00 C 157.49 450.55 151.77 451.52 146.54 449.61 Z" />
</svg>
