<?xml version="1.0" encoding="UTF-8" ?>
<!DOCTYPE svg PUBLIC "-//W3C//DTD SVG 1.1//EN" "http://www.w3.org/Graphics/SVG/1.1/DTD/svg11.dtd">
<svg width="356pt" height="457pt" viewBox="0 0 356 457" version="1.1" xmlns="http://www.w3.org/2000/svg">
<path fill="#ffffff" d=" M 0.00 0.00 L 356.00 0.00 L 356.00 236.42 C 355.18 231.96 354.22 227.50 354.00 222.96 C 353.28 206.64 352.14 190.31 349.47 174.18 C 348.53 166.96 347.58 159.73 345.52 152.74 C 343.30 143.36 341.90 133.72 338.16 124.79 C 332.51 110.66 324.75 97.46 315.73 85.25 C 314.47 83.35 312.32 80.54 314.25 78.40 C 317.68 74.55 320.80 69.98 321.26 64.71 C 321.03 56.77 316.41 49.49 310.01 44.98 C 304.01 40.28 296.38 38.84 289.05 37.64 C 280.71 31.09 271.02 26.59 262.11 20.93 C 252.47 12.56 239.96 8.78 227.81 5.78 C 220.24 4.03 212.55 2.85 204.87 1.67 C 185.03 -1.03 164.96 2.74 146.00 8.53 C 143.36 9.27 140.84 10.58 138.06 10.73 C 113.84 11.06 90.01 18.30 68.85 29.91 C 60.41 34.46 52.16 39.71 45.56 46.75 C 43.37 49.22 40.79 52.33 41.89 55.88 C 42.83 57.07 44.42 57.38 45.71 58.04 C 39.64 62.54 34.86 68.42 30.46 74.50 C 22.21 83.61 16.32 94.62 12.07 106.09 C 10.17 112.58 9.67 119.38 8.80 126.06 C 7.81 133.62 9.13 141.34 7.69 148.84 C 5.63 154.16 2.50 159.17 1.93 164.97 C 1.33 171.01 1.24 177.83 5.14 182.87 C 8.12 186.92 12.86 189.06 17.49 190.64 C 15.68 203.29 16.65 216.83 22.91 228.18 C 25.32 232.72 29.64 235.79 34.21 237.92 C 36.69 238.80 37.41 241.53 38.58 243.61 C 62.74 292.99 111.84 328.88 165.98 337.88 C 161.54 350.11 158.83 362.87 154.59 375.16 C 152.96 379.40 151.63 384.14 153.93 388.43 C 155.20 393.24 160.81 393.81 164.66 395.60 C 163.28 406.69 163.88 417.87 164.20 429.00 C 164.97 433.31 159.26 434.89 159.42 439.07 C 159.25 443.60 158.79 448.28 159.85 452.72 C 162.66 455.76 167.27 455.15 171.02 455.55 C 183.68 455.61 196.31 456.41 208.96 456.35 C 216.25 456.42 223.53 456.15 230.82 456.37 C 232.53 454.62 234.51 453.06 235.78 450.94 C 235.63 444.33 231.22 438.70 226.47 434.50 C 223.80 432.50 224.90 428.83 224.60 426.00 C 224.81 415.95 223.86 405.97 223.17 395.97 C 227.31 394.87 231.69 393.95 235.13 391.23 C 236.68 389.94 239.00 388.53 238.31 386.15 C 237.56 381.14 236.46 376.19 235.68 371.18 C 233.60 359.57 232.85 347.75 230.02 336.27 C 261.90 329.02 291.36 311.45 312.57 286.53 C 318.77 280.17 322.97 272.30 327.78 264.92 C 329.82 261.88 331.12 258.31 333.62 255.60 C 339.28 252.43 345.43 250.15 351.16 247.10 C 353.63 245.98 354.45 243.20 355.57 240.98 L 356.00 242.91 L 356.00 457.00 L 0.00 457.00 L 0.00 0.00 Z" />
<path fill="#303030" d=" M 146.00 8.53 C 164.96 2.74 185.03 -1.03 204.87 1.67 C 212.55 2.85 220.24 4.03 227.81 5.78 C 239.96 8.78 252.47 12.56 262.11 20.93 C 271.02 26.59 280.71 31.09 289.05 37.64 C 296.38 38.84 304.01 40.28 310.01 44.98 C 316.41 49.49 321.03 56.77 321.26 64.71 C 320.80 69.98 317.68 74.55 314.25 78.40 C 312.32 80.54 314.47 83.35 315.73 85.25 C 324.75 97.46 332.51 110.66 338.16 124.79 C 341.90 133.72 343.30 143.36 345.52 152.74 C 347.20 162.10 348.69 171.49 349.93 180.92 C 351.77 192.19 352.07 203.62 353.21 214.96 C 353.63 223.65 353.89 232.42 355.57 240.98 C 354.45 243.20 353.63 245.98 351.16 247.10 C 345.43 250.15 339.28 252.43 333.62 255.60 C 331.12 258.31 329.82 261.88 327.78 264.92 C 322.97 272.30 318.77 280.17 312.57 286.53 C 291.36 311.45 261.90 329.02 230.02 336.27 C 232.85 347.75 233.60 359.57 235.68 371.18 C 236.46 376.19 237.56 381.14 238.31 386.15 C 239.00 388.53 236.68 389.94 235.13 391.23 C 231.69 393.95 227.31 394.87 223.17 395.97 C 223.86 405.97 224.81 415.95 224.60 426.00 C 224.90 428.83 223.80 432.50 226.47 434.50 C 231.22 438.70 235.63 444.33 235.78 450.94 C 234.51 453.06 232.53 454.62 230.82 456.37 C 223.53 456.15 216.25 456.42 208.96 456.35 C 196.31 456.41 183.68 455.61 171.02 455.55 C 167.27 455.15 162.66 455.76 159.85 452.72 C 158.79 448.28 159.25 443.60 159.42 439.07 C 159.26 434.89 164.97 433.31 164.20 429.00 C 163.88 417.87 163.28 406.69 164.66 395.60 C 160.81 393.81 155.20 393.24 153.93 388.43 C 151.63 384.14 152.96 379.40 154.59 375.16 C 158.83 362.87 161.54 350.11 165.98 337.88 C 111.84 328.88 62.74 292.99 38.58 243.61 C 37.41 241.53 36.69 238.80 34.21 237.92 C 29.64 235.79 25.32 232.72 22.91 228.18 C 16.65 216.83 15.68 203.29 17.49 190.64 C 12.86 189.06 8.12 186.92 5.14 182.87 C 1.24 177.83 1.33 171.01 1.93 164.97 C 2.50 159.17 5.63 154.16 7.69 148.84 C 9.13 141.34 7.81 133.62 8.80 126.06 C 9.67 119.38 10.17 112.58 12.07 106.09 C 16.32 94.62 22.21 83.61 30.46 74.50 C 34.86 68.42 39.64 62.54 45.71 58.04 C 44.42 57.38 42.83 57.07 41.89 55.88 C 40.79 52.33 43.37 49.22 45.56 46.75 C 52.16 39.71 60.41 34.46 68.85 29.91 C 90.01 18.30 113.84 11.06 138.06 10.73 C 140.84 10.58 143.36 9.27 146.00 8.53 Z" />
<path fill="#d4c3a0" d=" M 294.67 85.44 C 298.15 85.48 301.63 85.27 305.08 84.80 C 323.03 106.61 335.24 133.17 339.93 161.03 C 343.33 186.28 346.98 211.56 347.72 237.05 C 347.81 238.82 347.65 240.91 345.99 241.96 C 340.84 245.17 334.55 245.37 328.97 247.50 C 326.48 254.92 322.17 261.51 318.01 268.07 C 314.77 273.64 310.63 278.62 306.46 283.49 C 301.45 284.21 296.48 282.08 292.09 279.85 C 284.45 275.79 280.67 267.58 277.04 260.17 C 275.40 260.72 273.72 261.90 274.44 263.87 C 276.55 272.79 281.52 281.68 289.71 286.32 C 292.91 288.22 296.49 289.30 300.03 290.40 C 292.32 297.65 284.46 304.84 275.42 310.43 C 269.48 313.91 263.93 318.14 257.41 320.50 C 239.55 328.29 220.25 332.82 200.75 333.29 C 203.56 327.26 206.91 321.46 208.99 315.11 C 213.15 301.76 217.42 288.42 220.71 274.81 C 222.31 268.05 222.54 261.08 223.40 254.21 C 226.70 232.33 227.33 210.00 225.11 187.98 C 222.98 172.06 221.58 156.03 218.68 140.22 C 216.71 128.84 215.07 117.37 212.00 106.21 C 221.74 104.72 231.27 101.18 239.13 95.13 C 255.07 100.41 272.69 97.62 287.74 90.83 C 290.45 89.62 292.66 87.58 294.67 85.44 Z" />
<path fill="#c0ab81" d=" M 182.26 106.32 C 192.13 107.28 202.14 107.41 212.00 106.21 C 215.07 117.37 216.71 128.84 218.68 140.22 C 221.58 156.03 222.98 172.06 225.11 187.98 C 227.33 210.00 226.70 232.33 223.40 254.21 C 222.54 261.08 222.31 268.05 220.71 274.81 C 217.42 288.42 213.15 301.76 208.99 315.11 C 206.91 321.46 203.56 327.26 200.75 333.29 C 172.31 334.29 143.76 326.89 118.96 313.05 C 89.01 296.35 64.31 270.15 49.99 238.95 C 53.36 237.17 56.62 235.08 59.18 232.22 C 66.26 224.51 71.07 214.92 73.96 204.92 C 74.56 201.64 77.76 200.13 80.00 198.08 C 85.98 193.35 90.23 186.52 91.84 179.07 C 93.26 173.32 92.73 167.37 92.75 161.52 C 99.80 158.35 106.63 154.66 112.76 149.92 C 114.89 159.34 120.97 168.19 129.92 172.24 C 135.43 174.39 142.70 174.74 147.09 170.12 C 158.65 157.75 166.25 140.65 164.27 123.51 C 171.46 119.18 177.18 112.91 182.26 106.32 Z" />
<path fill="#303030" d=" M 292.83 129.64 C 296.90 128.44 301.22 126.23 305.52 127.53 C 305.63 128.76 305.64 129.99 305.68 131.22 C 300.38 132.51 294.85 133.37 290.02 136.05 C 284.49 139.63 280.74 145.21 276.76 150.32 C 276.27 148.52 275.75 146.47 276.79 144.75 C 280.39 138.27 285.46 131.89 292.83 129.64 Z" />
<path fill="#303030" d=" M 295.33 144.64 C 301.23 142.34 308.25 144.05 313.07 147.97 C 315.79 150.12 317.14 153.65 316.81 157.07 C 316.84 166.40 306.91 173.85 297.94 171.93 C 292.45 171.13 287.42 166.74 286.83 161.08 C 286.35 154.67 289.35 147.56 295.33 144.64 Z" />
<path fill="#ffffff" d=" M 296.35 148.55 C 301.91 145.87 309.10 148.75 312.62 153.50 C 315.32 159.07 311.00 165.37 305.87 167.66 C 300.53 170.22 293.05 168.49 290.26 163.01 C 289.82 157.71 291.85 151.68 296.35 148.55 Z" />
<path fill="#d4c3a0" d=" M 345.52 152.74 C 347.58 159.73 348.53 166.96 349.47 174.18 C 352.14 190.31 353.28 206.64 354.00 222.96 C 354.22 227.50 355.18 231.96 356.00 236.42 L 356.00 242.91 L 355.57 240.98 C 353.89 232.42 353.63 223.65 353.21 214.96 C 352.07 203.62 351.77 192.19 349.93 180.92 C 348.69 171.49 347.20 162.10 345.52 152.74 Z" />
<path fill="#303030" d=" M 304.40 154.54 C 306.44 153.58 309.29 154.70 309.71 157.02 C 310.81 160.51 307.68 165.42 303.81 164.55 C 300.79 162.23 300.91 156.33 304.40 154.54 Z" />
<path fill="#303030" d=" M 108.55 160.38 C 112.39 158.89 116.86 160.70 119.00 164.13 C 116.16 164.69 113.20 164.60 110.41 165.44 C 106.04 167.82 105.39 173.43 105.57 177.91 C 106.12 184.14 107.68 191.10 112.83 195.20 C 116.09 197.50 119.96 195.65 122.93 193.80 C 123.37 194.40 124.25 195.59 124.69 196.18 C 122.39 198.62 119.69 201.65 115.92 200.86 C 109.64 200.78 105.62 195.04 102.80 190.14 C 99.20 183.94 100.03 176.39 101.71 169.74 C 102.83 166.01 104.69 161.91 108.55 160.38 Z" />
<path fill="#c38d7d" d=" M 216.30 338.75 C 219.01 338.29 221.72 337.83 224.43 337.36 C 225.44 353.42 227.38 369.43 229.55 385.35 C 223.35 388.41 216.34 389.17 209.63 390.48 C 208.95 381.89 210.81 373.44 211.78 364.96 C 212.79 356.14 214.95 347.51 216.30 338.75 Z" />
<path fill="#a67769" d=" M 172.11 338.87 C 186.78 340.69 201.64 340.58 216.30 338.75 C 214.95 347.51 212.79 356.14 211.78 364.96 C 210.81 373.44 208.95 381.89 209.63 390.48 C 192.82 392.80 175.63 391.45 159.22 387.27 C 164.78 371.49 167.48 354.91 172.11 338.87 Z" />
<path fill="#303030" d=" M 184.98 361.98 C 185.98 357.76 185.92 353.06 188.90 349.60 C 189.91 351.28 191.81 352.81 191.31 355.01 C 190.88 359.82 189.88 364.55 189.38 369.35 C 193.60 368.95 197.86 369.24 201.95 370.44 C 201.57 367.23 201.13 364.04 200.82 360.83 C 200.58 358.12 200.38 355.41 200.40 352.70 C 201.31 351.49 202.46 350.94 203.49 352.41 C 204.93 357.51 204.93 362.90 205.93 368.10 C 207.02 372.24 203.78 375.88 204.27 380.04 C 203.98 383.06 205.00 387.26 201.91 389.16 C 198.68 390.04 195.27 389.74 191.98 389.43 C 189.45 389.09 186.33 388.49 185.13 385.92 C 184.22 381.45 186.09 377.11 187.94 373.15 C 186.73 372.01 185.44 370.95 184.37 369.68 C 183.83 367.12 184.56 364.50 184.98 361.98 Z" />
<path fill="#c38d7d" d=" M 197.04 355.02 C 197.35 353.42 199.25 353.37 200.40 352.70 C 200.38 355.41 200.58 358.12 200.82 360.83 C 201.01 363.61 200.97 366.39 200.95 369.18 C 199.66 369.04 198.36 368.91 197.07 368.79 C 196.51 364.25 195.60 359.48 197.04 355.02 Z" />
<path fill="#d4c3a0" d=" M 189.12 384.25 C 188.80 380.27 189.30 376.07 192.81 373.60 C 195.11 374.19 197.49 374.44 199.74 375.21 C 199.91 378.42 199.39 381.61 199.27 384.82 C 195.87 385.01 192.46 384.97 189.12 384.25 Z" />
<path fill="#698da6" d=" M 170.12 397.10 C 181.37 399.75 192.97 399.51 204.43 398.86 C 202.18 399.30 199.87 399.69 197.79 400.68 C 196.57 408.52 196.12 417.30 200.72 424.21 C 190.86 424.43 180.64 423.54 171.29 427.39 C 170.26 417.32 170.77 407.19 170.12 397.10 Z" />
<path fill="#7da8c6" d=" M 204.43 398.86 C 208.83 398.35 213.22 397.82 217.59 397.07 C 218.17 407.09 216.39 417.04 216.76 427.06 C 211.41 426.11 206.15 424.66 200.72 424.21 C 196.12 417.30 196.57 408.52 197.79 400.68 C 199.87 399.69 202.18 399.30 204.43 398.86 Z" />
<path fill="#d4c3a0" d=" M 166.66 435.96 C 179.29 433.64 192.20 431.79 205.04 433.49 C 210.69 434.34 216.55 434.89 221.85 437.18 C 225.63 440.17 226.84 445.20 228.99 449.32 C 207.75 449.46 186.48 448.84 165.28 450.41 C 165.39 445.57 164.73 440.55 166.66 435.96 Z" />
</svg>
