<?xml version="1.0" encoding="UTF-8" ?>
<!DOCTYPE svg PUBLIC "-//W3C//DTD SVG 1.1//EN" "http://www.w3.org/Graphics/SVG/1.1/DTD/svg11.dtd">
<svg width="347pt" height="436pt" viewBox="0 0 347 436" version="1.1" xmlns="http://www.w3.org/2000/svg">
<path fill="#ffffff" d=" M 0.00 0.00 L 347.00 0.00 L 347.00 436.00 L 223.53 436.00 L 221.46 435.54 C 223.20 433.66 225.69 432.21 226.70 429.79 C 226.48 422.44 221.12 416.46 215.73 411.98 C 215.47 404.13 215.66 396.27 215.16 388.43 C 214.64 383.93 214.40 379.41 214.19 374.90 C 218.34 373.80 222.77 372.93 226.17 370.13 C 227.71 368.85 229.97 367.44 229.29 365.08 C 228.26 358.97 227.00 352.89 226.07 346.76 C 224.40 337.26 223.92 327.55 221.50 318.19 C 244.36 312.71 266.13 302.29 284.27 287.29 C 292.07 281.50 298.29 273.98 304.91 266.95 C 310.53 260.97 314.28 253.60 318.79 246.82 C 321.00 243.74 322.11 239.81 324.96 237.25 C 331.33 234.14 337.83 231.29 344.14 228.05 C 345.11 225.75 346.62 223.44 346.27 220.84 C 344.10 203.70 343.98 186.40 341.95 169.24 C 340.26 157.85 338.99 146.38 336.51 135.11 C 334.25 125.12 332.69 114.87 328.56 105.42 C 323.21 92.93 316.83 80.73 308.36 70.06 C 311.86 71.97 315.37 74.73 319.55 74.61 C 320.24 73.33 320.57 71.91 321.01 70.54 C 321.50 68.58 322.09 66.26 320.47 64.63 C 314.91 57.72 307.41 52.80 300.38 47.53 C 280.21 33.13 259.15 19.12 235.35 11.54 C 225.58 8.28 215.20 7.40 204.96 7.68 C 201.21 7.97 198.05 5.56 194.43 5.05 C 181.11 2.62 167.37 1.95 153.93 3.87 C 140.03 5.91 126.41 9.63 113.21 14.41 C 109.48 15.77 105.43 16.04 101.80 17.70 C 93.65 21.25 86.08 25.93 78.38 30.34 C 60.49 40.44 45.82 55.06 31.75 69.81 C 26.67 74.98 23.57 81.61 19.81 87.72 C 9.04 107.87 4.73 130.73 2.10 153.21 C 1.26 168.50 0.69 184.31 5.69 199.02 C 6.96 202.87 8.72 206.54 9.64 210.50 C 14.03 214.29 19.91 214.86 25.36 215.95 C 47.25 269.92 98.88 309.86 156.04 319.69 C 151.86 331.98 149.08 344.69 144.73 356.93 C 142.64 361.40 144.01 366.50 146.59 370.44 C 149.27 372.48 152.65 373.26 155.70 374.58 C 154.13 386.64 155.14 398.80 155.23 410.91 C 153.24 412.94 150.44 414.84 150.45 418.01 C 150.15 422.50 150.33 427.01 150.45 431.50 C 151.30 432.13 152.11 432.85 153.03 433.40 C 158.05 436.28 164.20 434.49 169.65 436.00 L 0.00 436.00 L 0.00 0.00 Z" />
<path fill="#222222" d=" M 153.93 3.87 C 167.37 1.95 181.11 2.62 194.43 5.05 C 198.05 5.56 201.21 7.97 204.96 7.68 C 215.20 7.40 225.58 8.28 235.35 11.54 C 259.15 19.12 280.21 33.13 300.38 47.53 C 307.41 52.80 314.91 57.72 320.47 64.63 C 322.09 66.26 321.50 68.58 321.01 70.54 C 320.57 71.91 320.24 73.33 319.55 74.61 C 315.37 74.73 311.86 71.97 308.36 70.06 C 316.83 80.73 323.21 92.93 328.56 105.42 C 332.69 114.87 334.25 125.12 336.51 135.11 C 338.99 146.38 340.26 157.85 341.95 169.24 C 343.98 186.40 344.10 203.70 346.27 220.84 C 346.62 223.44 345.11 225.75 344.14 228.05 C 337.83 231.29 331.33 234.14 324.96 237.25 C 322.11 239.81 321.00 243.74 318.79 246.82 C 314.28 253.60 310.53 260.97 304.91 266.95 C 298.29 273.98 292.07 281.50 284.27 287.29 C 266.13 302.29 244.36 312.71 221.50 318.19 C 223.92 327.55 224.40 337.26 226.07 346.76 C 227.00 352.89 228.26 358.97 229.29 365.08 C 229.97 367.44 227.71 368.85 226.17 370.13 C 222.77 372.93 218.34 373.80 214.19 374.90 C 214.40 379.41 214.64 383.93 215.16 388.43 C 215.66 396.27 215.47 404.13 215.73 411.98 C 221.12 416.46 226.48 422.44 226.70 429.79 C 225.69 432.21 223.20 433.66 221.46 435.54 C 213.72 433.87 205.83 435.83 198.01 435.21 C 183.04 434.06 167.91 435.68 153.03 433.40 C 152.11 432.85 151.30 432.13 150.45 431.50 C 150.33 427.01 150.15 422.50 150.45 418.01 C 150.44 414.84 153.24 412.94 155.23 410.91 C 155.14 398.80 154.13 386.64 155.70 374.58 C 152.65 373.26 149.27 372.48 146.59 370.44 C 144.01 366.50 142.64 361.40 144.73 356.93 C 149.08 344.69 151.86 331.98 156.04 319.69 C 98.88 309.86 47.25 269.92 25.36 215.95 C 19.91 214.86 14.03 214.29 9.64 210.50 C 8.72 206.54 6.96 202.87 5.69 199.02 C 0.69 184.31 1.26 168.50 2.10 153.21 C 4.73 130.73 9.04 107.87 19.81 87.72 C 23.57 81.61 26.67 74.98 31.75 69.81 C 45.82 55.06 60.49 40.44 78.38 30.34 C 86.08 25.93 93.65 21.25 101.80 17.70 C 105.43 16.04 109.48 15.77 113.21 14.41 C 126.41 9.63 140.03 5.91 153.93 3.87 Z" />
<path fill="#663424" d=" M 158.66 8.62 C 167.35 7.93 176.12 7.96 184.81 8.71 C 181.99 9.58 179.11 10.22 176.29 11.12 C 176.28 11.76 176.26 13.05 176.25 13.69 C 183.23 14.25 189.97 11.68 196.96 12.19 C 209.87 11.23 223.34 11.37 235.45 16.52 C 244.10 20.24 252.45 24.67 260.59 29.39 C 279.96 41.74 299.51 54.04 317.08 68.91 C 312.22 66.61 306.56 66.04 302.19 62.76 C 298.23 59.51 292.69 60.92 287.97 60.53 C 269.83 59.97 251.52 61.91 234.13 67.23 C 230.27 68.26 228.11 71.84 225.65 74.66 C 219.53 82.26 212.08 88.69 204.00 94.11 C 188.50 104.55 171.68 113.13 153.89 118.89 C 145.31 121.79 136.47 123.78 127.81 126.41 C 126.53 122.10 126.28 117.60 126.43 113.13 C 125.84 113.11 124.68 113.06 124.10 113.04 C 122.89 118.64 122.81 124.39 123.01 130.09 C 122.14 125.06 121.53 119.96 119.85 115.12 C 116.03 120.76 115.91 128.33 119.44 134.14 C 120.80 133.65 122.16 133.17 123.53 132.69 C 124.06 135.50 124.54 138.33 125.00 141.15 C 118.55 136.57 110.88 133.43 102.94 132.97 C 95.48 133.63 88.90 138.74 85.02 144.95 C 80.88 153.85 79.68 163.97 74.39 172.37 C 70.62 178.24 67.95 184.94 62.87 189.87 C 54.36 197.82 45.06 205.99 33.31 208.38 C 27.03 208.86 20.68 208.51 14.46 207.54 C 9.65 196.35 6.80 184.17 7.12 171.95 C 7.21 165.31 6.87 158.64 7.63 152.02 C 10.15 130.32 15.21 108.83 23.55 88.60 C 26.36 81.62 31.80 76.23 37.06 71.05 C 46.07 62.39 54.75 53.32 64.74 45.78 C 74.30 38.29 85.04 32.54 95.56 26.56 C 114.95 15.90 136.95 11.52 158.66 8.62 Z" />
<path fill="#7a3e2b" d=" M 182.87 40.83 C 196.51 37.70 210.63 36.40 224.61 37.42 C 228.08 37.87 231.86 38.09 234.82 40.15 C 236.88 41.76 235.78 44.48 235.58 46.63 C 229.95 47.83 224.54 45.52 219.00 44.99 C 205.85 43.86 192.66 45.58 179.51 44.96 C 180.10 43.15 180.58 40.99 182.87 40.83 Z" />
<path fill="#7a3e2b" d=" M 81.84 51.91 C 86.91 50.20 91.94 48.22 97.22 47.22 C 98.59 46.85 100.64 47.08 100.79 48.84 C 97.73 52.74 92.51 53.51 88.11 55.09 C 80.93 57.12 74.48 60.91 67.71 63.94 C 67.27 62.28 66.16 60.21 67.92 58.90 C 71.89 55.45 77.03 53.82 81.84 51.91 Z" />
<path fill="#fff1d3" d=" M 272.00 67.62 C 279.69 67.41 287.38 67.46 295.07 67.42 C 296.62 67.12 297.51 68.49 298.39 69.50 C 315.30 91.20 326.88 117.13 331.21 144.34 C 332.66 156.58 334.80 168.74 335.73 181.05 C 337.59 193.29 338.23 205.66 338.73 218.02 C 338.80 220.08 339.04 222.64 337.08 223.97 C 331.91 227.31 325.48 227.28 319.93 229.64 C 317.54 237.01 313.21 243.51 309.10 250.01 C 307.05 253.54 304.72 256.92 302.03 260.00 C 298.75 263.79 296.17 268.27 292.15 271.36 C 285.69 273.10 278.72 270.43 273.96 265.97 C 266.98 259.08 262.86 249.21 263.18 239.37 C 262.39 239.37 261.60 239.38 260.82 239.40 C 260.49 242.25 259.94 245.07 259.72 247.93 C 261.55 256.08 264.55 264.34 270.78 270.21 C 274.77 274.28 280.25 276.33 285.73 277.48 C 276.47 286.23 265.80 293.19 254.86 299.61 C 234.66 309.45 212.39 315.04 189.89 315.42 C 194.36 307.12 198.21 298.49 201.65 289.72 C 204.15 280.83 206.87 271.99 209.00 263.00 C 214.61 238.09 216.02 212.47 216.19 187.01 C 215.32 169.89 214.75 152.63 211.20 135.81 C 207.80 124.10 206.22 111.78 200.88 100.71 C 210.82 93.97 220.60 86.57 227.90 76.91 C 228.69 75.90 229.61 74.90 230.95 74.66 C 244.32 70.83 258.13 68.55 272.00 67.62 Z" />
<path fill="#f6e1b7" d=" M 127.62 129.83 C 153.72 125.31 178.81 115.36 200.88 100.71 C 206.22 111.78 207.80 124.10 211.20 135.81 C 214.75 152.63 215.32 169.89 216.19 187.01 C 216.02 212.47 214.61 238.09 209.00 263.00 C 206.87 271.99 204.15 280.83 201.65 289.72 C 198.21 298.49 194.36 307.12 189.89 315.42 C 141.66 316.49 94.07 293.60 63.47 256.54 C 57.50 249.89 53.15 242.08 48.29 234.64 C 43.95 227.70 40.42 220.30 37.24 212.77 C 53.84 205.12 68.89 192.88 77.56 176.59 C 79.75 172.70 82.02 168.82 83.41 164.56 C 85.52 158.81 86.85 152.62 90.37 147.51 C 93.00 144.42 95.96 141.57 99.26 139.20 C 100.82 137.93 102.98 137.88 104.86 138.39 C 115.40 141.49 123.98 148.72 132.04 155.89 C 133.27 155.43 134.44 154.86 135.58 154.20 C 132.31 146.31 128.15 138.55 127.62 129.83 Z" />
<path fill="#222222" d=" M 267.50 118.49 C 274.45 110.88 284.90 106.44 295.24 107.84 C 297.21 108.04 298.07 109.83 299.03 111.30 C 294.32 113.41 289.03 112.06 284.16 113.50 C 276.40 115.31 270.67 121.12 264.69 125.97 C 262.27 123.16 265.78 120.53 267.50 118.49 Z" />
<path fill="#7a3e2b" d=" M 119.44 134.14 C 115.91 128.33 116.03 120.76 119.85 115.12 C 121.53 119.96 122.14 125.06 123.01 130.09 C 123.14 130.74 123.40 132.04 123.53 132.69 C 122.16 133.17 120.80 133.65 119.44 134.14 Z" />
<path fill="#222222" d=" M 285.43 124.61 C 290.46 122.48 296.19 124.21 300.63 126.95 C 304.21 129.47 307.96 133.16 307.58 137.93 C 307.99 144.41 303.28 149.85 298.13 153.14 C 290.16 158.37 277.17 155.50 273.81 146.06 C 273.00 141.65 272.86 136.53 275.75 132.79 C 278.34 129.44 281.48 126.29 285.43 124.61 Z" />
<path fill="#ffffff" d=" M 285.71 128.75 C 292.24 125.37 300.07 130.01 303.22 135.94 C 304.87 140.64 302.23 145.62 298.53 148.50 C 292.34 154.43 279.68 152.61 277.09 143.86 C 274.75 137.38 280.48 131.59 285.71 128.75 Z" />
<path fill="#222222" d=" M 291.67 135.63 C 293.61 135.17 295.84 134.01 297.59 135.63 C 300.37 137.64 299.33 141.46 298.43 144.21 C 297.82 144.54 296.61 145.20 296.01 145.53 C 293.92 144.61 291.42 143.61 290.64 141.24 C 290.38 139.30 291.24 137.48 291.67 135.63 Z" />
<path fill="#222222" d=" M 96.99 144.04 C 100.38 140.67 108.22 141.31 109.18 146.59 C 105.90 146.74 102.08 146.00 99.57 148.65 C 96.04 152.53 96.20 158.30 96.83 163.18 C 97.83 168.50 99.53 174.50 104.35 177.62 C 107.82 179.56 111.43 177.48 114.33 175.54 C 116.21 179.22 112.40 182.18 109.13 182.78 C 105.88 182.98 102.35 182.42 99.95 180.03 C 94.82 175.16 90.75 168.31 91.39 161.00 C 91.92 155.09 92.59 148.46 96.99 144.04 Z" />
<path fill="#7a3e2b" d=" M 64.76 162.66 C 66.85 158.11 67.98 153.07 71.12 149.06 C 71.91 151.29 72.74 153.62 72.13 156.01 C 70.44 165.86 66.04 175.16 60.15 183.17 C 58.93 185.23 56.40 184.58 54.41 184.74 C 54.14 182.75 53.46 180.57 54.80 178.80 C 58.11 173.42 62.26 168.52 64.76 162.66 Z" />
<path fill="#7facc6" d=" M 202.32 321.18 C 206.75 320.76 211.14 320.08 215.52 319.30 C 217.23 334.33 218.11 349.48 220.87 364.38 C 211.78 368.28 201.83 369.46 192.08 370.56 C 192.39 370.02 193.01 368.92 193.32 368.37 C 194.41 366.38 195.07 364.20 195.53 361.98 C 199.84 352.63 201.20 342.22 201.24 332.01 C 201.26 328.37 201.66 324.75 202.32 321.18 Z" />
<path fill="#6990a6" d=" M 150.08 366.31 C 155.46 351.43 157.94 335.73 162.34 320.58 C 175.57 322.44 189.04 322.71 202.32 321.18 C 201.66 324.75 201.26 328.37 201.24 332.01 C 201.20 342.22 199.84 352.63 195.53 361.98 C 195.05 358.13 195.11 354.16 197.24 350.77 C 196.34 343.97 195.54 337.15 194.36 330.38 C 193.38 330.60 192.40 330.83 191.43 331.08 C 190.05 331.71 187.89 332.00 187.89 333.95 C 187.31 338.81 188.48 343.65 189.11 348.45 C 186.15 348.23 183.19 348.33 180.24 348.40 C 180.79 343.88 181.62 339.39 182.16 334.88 C 182.72 332.46 180.97 330.49 179.98 328.48 C 178.72 330.48 177.55 332.61 177.21 334.99 C 176.46 339.23 175.21 343.45 175.33 347.79 C 176.16 349.47 177.61 350.75 178.63 352.32 C 177.67 356.74 174.45 361.64 176.97 366.06 C 181.52 369.67 187.92 368.36 193.32 368.37 C 193.01 368.92 192.39 370.02 192.08 370.56 C 182.69 370.60 173.22 370.84 163.92 369.24 C 159.28 368.42 154.70 367.23 150.08 366.31 Z" />
<path fill="#222222" d=" M 177.21 334.99 C 177.55 332.61 178.72 330.48 179.98 328.48 C 180.97 330.49 182.72 332.46 182.16 334.88 C 181.62 339.39 180.79 343.88 180.24 348.40 C 183.19 348.33 186.15 348.23 189.11 348.45 C 190.37 348.76 191.62 349.15 192.87 349.53 C 192.32 343.39 191.47 337.26 191.43 331.08 C 192.40 330.83 193.38 330.60 194.36 330.38 C 195.54 337.15 196.34 343.97 197.24 350.77 C 195.11 354.16 195.05 358.13 195.53 361.98 C 195.07 364.20 194.41 366.38 193.32 368.37 C 187.92 368.36 181.52 369.67 176.97 366.06 C 174.45 361.64 177.67 356.74 178.63 352.32 C 177.61 350.75 176.16 349.47 175.33 347.79 C 175.21 343.45 176.46 339.23 177.21 334.99 Z" />
<path fill="#7facc6" d=" M 187.89 333.95 C 187.89 332.00 190.05 331.71 191.43 331.08 C 191.47 337.26 192.32 343.39 192.87 349.53 C 191.62 349.15 190.37 348.76 189.11 348.45 C 188.48 343.65 187.31 338.81 187.89 333.95 Z" />
<path fill="#fff1d3" d=" M 179.74 362.23 C 179.65 358.39 180.59 353.80 184.72 352.49 C 186.83 353.36 189.53 353.13 191.20 354.84 C 190.78 357.78 190.42 360.72 190.34 363.69 C 186.91 364.18 182.39 364.91 179.74 362.23 Z" />
<path fill="#9469a6" d=" M 160.60 376.16 C 169.32 377.39 178.12 378.80 186.95 378.08 C 189.83 377.80 192.72 377.76 195.61 377.83 C 192.62 378.38 189.66 379.02 186.68 379.60 C 188.00 386.89 188.65 394.35 187.20 401.67 C 188.21 402.16 189.23 402.63 190.26 403.09 C 180.87 403.78 171.05 402.54 162.23 406.63 C 160.82 396.53 162.33 386.23 160.60 376.16 Z" />
<path fill="#aa79bf" d=" M 195.61 377.83 C 199.96 377.27 204.30 376.60 208.66 376.07 C 209.00 386.27 207.87 396.43 207.65 406.62 C 202.05 404.59 196.16 403.71 190.26 403.09 C 189.23 402.63 188.21 402.16 187.20 401.67 C 188.65 394.35 188.00 386.89 186.68 379.60 C 189.66 379.02 192.62 378.38 195.61 377.83 Z" />
<path fill="#ccbd90" d=" M 157.67 414.83 C 165.39 413.61 173.06 412.06 180.90 411.75 C 181.51 413.66 181.32 416.46 183.60 417.28 C 189.63 419.75 196.28 419.98 202.60 421.37 C 207.38 422.45 212.30 422.80 217.15 421.95 C 218.11 424.11 219.16 426.22 220.09 428.39 C 204.72 428.48 189.35 428.28 173.98 428.57 C 168.06 429.01 162.14 429.30 156.20 429.45 C 156.41 424.56 155.50 419.41 157.67 414.83 Z" />
<path fill="#e2d19f" d=" M 180.90 411.75 C 190.94 411.62 201.06 412.62 210.76 415.27 C 214.10 415.95 215.62 419.29 217.15 421.95 C 212.30 422.80 207.38 422.45 202.60 421.37 C 196.28 419.98 189.63 419.75 183.60 417.28 C 181.32 416.46 181.51 413.66 180.90 411.75 Z" />
<path fill="#e2e2e2" d=" M 153.03 433.40 C 167.91 435.68 183.04 434.06 198.01 435.21 C 205.83 435.83 213.72 433.87 221.46 435.54 L 223.53 436.00 L 169.65 436.00 C 164.20 434.49 158.05 436.28 153.03 433.40 Z" />
</svg>
